<svg id="Layer_1" data-name="Layer 1" xmlns="http://www.w3.org/2000/svg" viewBox="0 0 55.29 48.36"><defs><style>.cls-1{fill:#1c3c6d;}.cls-2{fill:#00aeef;}</style></defs><path class="cls-1" d="M269.82,402.83a27.64,27.64,0,0,0-.55-39.09c-.31-.31-.64-.6-1-.89a25,25,0,1,1-37.2.53c-.31.29-.63.6-.93.91a27.64,27.64,0,0,0,39.64,38.54Z" transform="translate(-222.35 -362.85)"/><path class="cls-2" d="M256.32,403l0-33.86h-5.54l0,34.71A23.86,23.86,0,0,0,256.32,403Z" transform="translate(-222.35 -362.85)"/><path class="cls-2" d="M263.12,399.86l0-36.29h-5.54l0,39A23.33,23.33,0,0,0,263.12,399.86Z" transform="translate(-222.35 -362.85)"/><path class="cls-2" d="M245.74,403.44a23.6,23.6,0,0,0,3.56.36l0-30.35h-5.54l0,29.56C244.41,403.18,245.07,403.32,245.74,403.44Z" transform="translate(-222.35 -362.85)"/><path class="cls-2" d="M242.39,402.59v-21h-5.54v18.36A23.63,23.63,0,0,0,242.39,402.59Z" transform="translate(-222.35 -362.85)"/></svg>